<svg width="60" height="60" viewBox="0 0 60 60" fill="none" xmlns="http://www.w3.org/2000/svg">
<path d="M50.625 9.84375H9.375C8.50476 9.84375 7.67016 10.1895 7.05481 10.8048C6.43945 11.4202 6.09375 12.2548 6.09375 13.125V50.625C6.09368 50.8647 6.15486 51.1004 6.27149 51.3098C6.38812 51.5191 6.55633 51.6952 6.76015 51.8213C6.96396 51.9474 7.19662 52.0193 7.43604 52.0302C7.67546 52.0411 7.91369 51.9906 8.12813 51.8836L15 48.4477L21.8719 51.8836C22.0669 51.981 22.282 52.0317 22.5 52.0317C22.718 52.0317 22.9331 51.981 23.1281 51.8836L30 48.4477L36.8719 51.8836C37.0669 51.981 37.282 52.0317 37.5 52.0317C37.718 52.0317 37.9331 51.981 38.1281 51.8836L45 48.4477L51.8719 51.8836C52.067 51.9808 52.282 52.0314 52.5 52.0313C52.761 52.0317 53.0169 51.9586 53.2383 51.8203C53.4422 51.6945 53.6107 51.5187 53.7276 51.3095C53.8445 51.1003 53.906 50.8647 53.9062 50.625V13.125C53.9062 12.2548 53.5605 11.4202 52.9452 10.8048C52.3298 10.1895 51.4952 9.84375 50.625 9.84375ZM51.0938 48.3492L45.6281 45.6164C45.4331 45.519 45.218 45.4683 45 45.4683C44.782 45.4683 44.5669 45.519 44.3719 45.6164L37.5 49.0523L30.6281 45.6164C30.4331 45.519 30.218 45.4683 30 45.4683C29.782 45.4683 29.5669 45.519 29.3719 45.6164L22.5 49.0523L15.6281 45.6164C15.4331 45.519 15.218 45.4683 15 45.4683C14.782 45.4683 14.5669 45.519 14.3719 45.6164L8.90625 48.3492V13.125C8.90625 13.0007 8.95564 12.8815 9.04354 12.7935C9.13145 12.7056 9.25068 12.6563 9.375 12.6563H50.625C50.7493 12.6563 50.8685 12.7056 50.9565 12.7935C51.0444 12.8815 51.0938 13.0007 51.0938 13.125V48.3492ZM46.4062 26.25C46.4062 26.623 46.2581 26.9806 45.9944 27.2444C45.7306 27.5081 45.373 27.6563 45 27.6563H33.75C33.377 27.6563 33.0194 27.5081 32.7556 27.2444C32.4919 26.9806 32.3438 26.623 32.3438 26.25C32.3438 25.877 32.4919 25.5194 32.7556 25.2556C33.0194 24.9919 33.377 24.8438 33.75 24.8438H45C45.373 24.8438 45.7306 24.9919 45.9944 25.2556C46.2581 25.5194 46.4062 25.877 46.4062 26.25ZM46.4062 33.75C46.4062 34.123 46.2581 34.4806 45.9944 34.7444C45.7306 35.0081 45.373 35.1563 45 35.1563H33.75C33.377 35.1563 33.0194 35.0081 32.7556 34.7444C32.4919 34.4806 32.3438 34.123 32.3438 33.75C32.3438 33.377 32.4919 33.0194 32.7556 32.7556C33.0194 32.4919 33.377 32.3438 33.75 32.3438H45C45.373 32.3438 45.7306 32.4919 45.9944 32.7556C46.2581 33.0194 46.4062 33.377 46.4062 33.75ZM26.25 21.0938H15C14.627 21.0938 14.2694 21.2419 14.0056 21.5056C13.7419 21.7694 13.5938 22.127 13.5938 22.5V37.5C13.5938 37.873 13.7419 38.2306 14.0056 38.4944C14.2694 38.7581 14.627 38.9063 15 38.9063H26.25C26.623 38.9063 26.9806 38.7581 27.2444 38.4944C27.5081 38.2306 27.6562 37.873 27.6562 37.5V22.5C27.6562 22.127 27.5081 21.7694 27.2444 21.5056C26.9806 21.2419 26.623 21.0938 26.25 21.0938ZM24.8438 36.0938H16.4062V23.9063H24.8438V36.0938Z" fill="black"/>
</svg>
