<svg width="20" height="20" viewBox="0 0 20 20" fill="none" xmlns="http://www.w3.org/2000/svg">
<path d="M2.04567 6.61598C2.28008 6.38164 2.59797 6.25 2.92942 6.25C3.26088 6.25 3.57876 6.38164 3.81317 6.61598L10.0007 12.8035L16.1882 6.61598C16.4239 6.38829 16.7397 6.26229 17.0674 6.26514C17.3952 6.26799 17.7087 6.39945 17.9404 6.63121C18.1722 6.86297 18.3037 7.17649 18.3065 7.50423C18.3094 7.83198 18.1834 8.14773 17.9557 8.38348L10.8844 15.4547C10.65 15.6891 10.3321 15.8207 10.0007 15.8207C9.66922 15.8207 9.35133 15.6891 9.11692 15.4547L2.04567 8.38348C1.81133 8.14907 1.67969 7.83119 1.67969 7.49973C1.67969 7.16828 1.81133 6.85039 2.04567 6.61598Z" fill="#131313"/>
</svg>
