<svg width="53" height="53" viewBox="0 0 53 53" fill="none" xmlns="http://www.w3.org/2000/svg">
<g filter="url(#filter0_d_764_8354)">
<circle cx="24.5" cy="24.5" r="22.5" fill="white"/>
<path d="M20.0648 10.8372C17.1423 11.8511 14.6219 13.7754 12.8739 16.3275C11.1259 18.8797 10.2423 21.9251 10.353 25.0165C10.4637 28.108 11.5629 31.0824 13.489 33.5029C15.4152 35.9235 18.0667 37.6626 21.0543 38.4648C23.4764 39.0897 26.014 39.1172 28.4491 38.5447C30.655 38.0493 32.6944 36.9894 34.3676 35.4689C36.1091 33.8381 37.3732 31.7635 38.0239 29.4681C38.7312 26.972 38.857 24.3469 38.3918 21.7946H24.7905V27.4366H32.6675C32.51 28.3365 32.1727 29.1953 31.6756 29.9618C31.1785 30.7282 30.5319 31.3865 29.7745 31.8972C28.8126 32.5335 27.7283 32.9616 26.5912 33.1541C25.4508 33.3661 24.2811 33.3661 23.1407 33.1541C21.9848 32.9151 20.8914 32.438 19.93 31.7533C18.3856 30.66 17.2259 29.1069 16.6165 27.3155C15.9968 25.4906 15.9968 23.5121 16.6165 21.6871C17.0503 20.408 17.7674 19.2433 18.7143 18.28C19.7979 17.1574 21.1698 16.355 22.6794 15.9607C24.189 15.5665 25.7781 15.5957 27.2722 16.0451C28.4394 16.4034 29.5068 17.0294 30.3892 17.8732C31.2773 16.9896 32.164 16.1038 33.0491 15.2156C33.5061 14.738 34.0043 14.2832 34.4545 13.7942C33.1075 12.5408 31.5265 11.5654 29.8019 10.9241C26.6614 9.78375 23.2252 9.7531 20.0648 10.8372Z" fill="white"/>
<path d="M20.0647 10.8374C23.2247 9.7525 26.661 9.78234 29.8017 10.9219C31.5266 11.5676 33.1069 12.5477 34.452 13.8058C33.995 14.2948 33.5128 14.7518 33.0466 15.2271C32.16 16.1123 31.2741 16.9943 30.389 17.8734C29.5066 17.0295 28.4392 16.4035 27.272 16.0452C25.7784 15.5942 24.1894 15.5634 22.6794 15.956C21.1694 16.3486 19.7966 17.1496 18.7119 18.271C17.765 19.2342 17.0479 20.3989 16.6141 21.6781L11.877 18.0105C13.5726 14.648 16.5084 12.076 20.0647 10.8374Z" fill="#E33629"/>
<path d="M10.6203 21.6432C10.8749 20.3813 11.2976 19.1593 11.8771 18.0098L16.6142 21.6866C15.9945 23.5115 15.9945 25.49 16.6142 27.3149C15.036 28.5337 13.4569 29.7585 11.8771 30.9895C10.4264 28.1017 9.98393 24.8115 10.6203 21.6432Z" fill="#F8BD00"/>
<path d="M24.7901 21.792H38.3913C38.8566 24.3444 38.7307 26.9694 38.0234 29.4655C37.3727 31.7609 36.1086 33.8356 34.3672 35.4664C32.8384 34.2735 31.3028 33.0898 29.774 31.897C30.5319 31.3857 31.1788 30.7267 31.676 29.9594C32.1731 29.1922 32.5102 28.3324 32.667 27.4318H24.7901C24.7878 25.5534 24.7901 23.6727 24.7901 21.792Z" fill="#587DBD"/>
<path d="M11.875 30.99C13.4548 29.7712 15.0338 28.5464 16.6121 27.3154C17.2227 29.1074 18.3841 30.6607 19.9302 31.7532C20.8945 32.4348 21.9903 32.908 23.1477 33.1426C24.2881 33.3546 25.4578 33.3546 26.5983 33.1426C27.7353 32.9501 28.8196 32.522 29.7815 31.8857C31.3103 33.0786 32.8459 34.2623 34.3747 35.4552C32.7017 36.9764 30.6622 38.0371 28.4561 38.5333C26.0211 39.1057 23.4834 39.0783 21.0613 38.4533C19.1457 37.9418 17.3563 37.0401 15.8055 35.8048C14.164 34.5015 12.8232 32.8592 11.875 30.99Z" fill="#319F43"/>
</g>
<defs>
<filter id="filter0_d_764_8354" x="0" y="0" width="53" height="53" filterUnits="userSpaceOnUse" color-interpolation-filters="sRGB">
<feFlood flood-opacity="0" result="BackgroundImageFix"/>
<feColorMatrix in="SourceAlpha" type="matrix" values="0 0 0 0 0 0 0 0 0 0 0 0 0 0 0 0 0 0 127 0" result="hardAlpha"/>
<feOffset dx="2" dy="2"/>
<feGaussianBlur stdDeviation="2"/>
<feComposite in2="hardAlpha" operator="out"/>
<feColorMatrix type="matrix" values="0 0 0 0 0 0 0 0 0 0 0 0 0 0 0 0 0 0 0.1 0"/>
<feBlend mode="normal" in2="BackgroundImageFix" result="effect1_dropShadow_764_8354"/>
<feBlend mode="normal" in="SourceGraphic" in2="effect1_dropShadow_764_8354" result="shape"/>
</filter>
</defs>
</svg>
