<svg width="53" height="53" viewBox="0 0 53 53" fill="none" xmlns="http://www.w3.org/2000/svg">
<g filter="url(#filter0_d_764_8352)">
<circle cx="24.5" cy="24.5" r="22.5" fill="#FAE301"/>
<path d="M24.4995 11C33.1995 11 40.251 16.496 40.251 23.2775C40.251 30.0575 33.1995 35.5535 24.501 35.5535C23.6349 35.552 22.7697 35.4969 21.9105 35.3885L15.2985 39.713C14.547 40.1105 14.2815 40.067 14.5905 39.0935L15.9285 33.5765C11.6085 31.3865 8.75098 27.5915 8.75098 23.2775C8.75098 16.4975 15.801 11 24.501 11M33.363 23.09L35.568 20.954C35.6952 20.8219 35.7662 20.6455 35.766 20.4621C35.7657 20.2786 35.6943 20.1024 35.5668 19.9706C35.4392 19.8388 35.2655 19.7616 35.0822 19.7553C34.8988 19.7491 34.7202 19.8142 34.584 19.937L31.692 22.736V20.423C31.692 20.2352 31.6174 20.0551 31.4846 19.9224C31.3518 19.7896 31.1717 19.715 30.984 19.715C30.7962 19.715 30.6161 19.7896 30.4833 19.9224C30.3506 20.0551 30.276 20.2352 30.276 20.423V24.2585C30.251 24.3681 30.251 24.4819 30.276 24.5915V26.75C30.276 26.9378 30.3506 27.1179 30.4833 27.2506C30.6161 27.3834 30.7962 27.458 30.984 27.458C31.1717 27.458 31.3518 27.3834 31.4846 27.2506C31.6174 27.1179 31.692 26.9378 31.692 26.75V24.7055L32.3325 24.086L34.4745 27.1355C34.528 27.2116 34.5959 27.2765 34.6745 27.3264C34.753 27.3762 34.8406 27.4101 34.9323 27.4262C35.0239 27.4422 35.1178 27.44 35.2086 27.4197C35.2994 27.3994 35.3853 27.3615 35.4615 27.308C35.5376 27.2545 35.6025 27.1866 35.6523 27.108C35.7022 27.0295 35.7361 26.9419 35.7521 26.8502C35.7682 26.7586 35.766 26.6647 35.7457 26.5739C35.7254 26.4831 35.6875 26.3971 35.634 26.321L33.363 23.09ZM28.926 25.976H26.736V20.4455C26.7276 20.2636 26.6494 20.0918 26.5177 19.9661C26.386 19.8403 26.2109 19.7701 26.0287 19.7701C25.8466 19.7701 25.6715 19.8403 25.5397 19.9661C25.408 20.0918 25.3299 20.2636 25.3215 20.4455V26.684C25.3215 27.074 25.6365 27.392 26.028 27.392H28.926C29.1138 27.392 29.2938 27.3174 29.4266 27.1846C29.5594 27.0519 29.634 26.8718 29.634 26.684C29.634 26.4962 29.5594 26.3161 29.4266 26.1834C29.2938 26.0506 29.1138 25.976 28.926 25.976ZM20.1405 24.3395L21.1845 21.7775L22.1415 24.338L20.1405 24.3395ZM23.925 25.07L23.928 25.046C23.9275 24.8677 23.8594 24.6961 23.7375 24.566L22.1685 20.366C22.1027 20.1659 21.9774 19.9905 21.8094 19.8635C21.6413 19.7364 21.4385 19.6637 21.228 19.655C21.0161 19.6549 20.8092 19.7189 20.6344 19.8386C20.4596 19.9582 20.325 20.128 20.2485 20.3255L17.7555 26.438C17.6845 26.6118 17.6854 26.8068 17.7581 26.9799C17.8309 27.1531 17.9694 27.2902 18.1432 27.3612C18.3171 27.4323 18.512 27.4313 18.6852 27.3586C18.8583 27.2859 18.9955 27.1474 19.0665 26.9735L19.5645 25.754H22.6695L23.1165 26.954C23.147 27.0437 23.1952 27.1264 23.2582 27.1971C23.3212 27.2678 23.3978 27.3252 23.4834 27.3658C23.569 27.4064 23.6618 27.4294 23.7565 27.4335C23.8512 27.4375 23.9457 27.4225 24.0344 27.3894C24.1232 27.3563 24.2044 27.3057 24.2732 27.2406C24.3421 27.1755 24.3971 27.0973 24.4352 27.0105C24.4732 26.9237 24.4935 26.8302 24.4947 26.7355C24.496 26.6408 24.4782 26.5467 24.4425 26.459L23.925 25.07ZM18.9405 20.453C18.9409 20.36 18.9229 20.2679 18.8875 20.1819C18.8522 20.096 18.8002 20.0178 18.7345 19.952C18.6689 19.8862 18.5908 19.834 18.5049 19.7985C18.419 19.763 18.3269 19.7448 18.234 19.745H13.3665C13.1787 19.745 12.9986 19.8196 12.8658 19.9524C12.7331 20.0851 12.6585 20.2652 12.6585 20.453C12.6585 20.6408 12.7331 20.8209 12.8658 20.9536C12.9986 21.0864 13.1787 21.161 13.3665 21.161H15.1065V26.765C15.1065 26.9528 15.1811 27.1329 15.3138 27.2656C15.4466 27.3984 15.6267 27.473 15.8145 27.473C16.0023 27.473 16.1823 27.3984 16.3151 27.2656C16.4479 27.1329 16.5225 26.9528 16.5225 26.765V21.161H18.2325C18.3256 21.1614 18.4178 21.1434 18.5039 21.1079C18.59 21.0725 18.6682 21.0203 18.734 20.9545C18.7998 20.8887 18.852 20.8105 18.8874 20.7244C18.9228 20.6383 18.9409 20.5461 18.9405 20.453Z" fill="#391B1B"/>
</g>
<defs>
<filter id="filter0_d_764_8352" x="0" y="0" width="53" height="53" filterUnits="userSpaceOnUse" color-interpolation-filters="sRGB">
<feFlood flood-opacity="0" result="BackgroundImageFix"/>
<feColorMatrix in="SourceAlpha" type="matrix" values="0 0 0 0 0 0 0 0 0 0 0 0 0 0 0 0 0 0 127 0" result="hardAlpha"/>
<feOffset dx="2" dy="2"/>
<feGaussianBlur stdDeviation="2"/>
<feComposite in2="hardAlpha" operator="out"/>
<feColorMatrix type="matrix" values="0 0 0 0 0 0 0 0 0 0 0 0 0 0 0 0 0 0 0.1 0"/>
<feBlend mode="normal" in2="BackgroundImageFix" result="effect1_dropShadow_764_8352"/>
<feBlend mode="normal" in="SourceGraphic" in2="effect1_dropShadow_764_8352" result="shape"/>
</filter>
</defs>
</svg>
