<svg width="6" height="20" viewBox="0 0 6 20" fill="none" xmlns="http://www.w3.org/2000/svg">
<path d="M0.799999 9.99822C0.799999 10.2873 0.85693 10.5735 0.96754 10.8405C1.07815 11.1075 1.24028 11.3502 1.44466 11.5546C1.64904 11.7589 1.89167 11.9211 2.15871 12.0317C2.42575 12.1423 2.71196 12.1992 3.001 12.1992C3.29004 12.1992 3.57625 12.1423 3.84329 12.0317C4.11032 11.9211 4.35296 11.7589 4.55734 11.5546C4.76172 11.3502 4.92385 11.1075 5.03446 10.8405C5.14507 10.5735 5.202 10.2873 5.202 9.99822C5.20187 9.41448 4.96985 8.8547 4.55699 8.44202C4.14413 8.02935 3.58424 7.79759 3.0005 7.79772C2.41676 7.79785 1.85698 8.02987 1.4443 8.44273C1.03163 8.85559 0.799867 9.41548 0.799999 9.99922V9.99822ZM0.799999 16.9982C0.799999 17.2873 0.85693 17.5735 0.96754 17.8405C1.07815 18.1075 1.24028 18.3502 1.44466 18.5546C1.64904 18.7589 1.89167 18.9211 2.15871 19.0317C2.42575 19.1423 2.71196 19.1992 3.001 19.1992C3.29004 19.1992 3.57625 19.1423 3.84329 19.0317C4.11032 18.9211 4.35296 18.7589 4.55734 18.5546C4.76172 18.3502 4.92385 18.1075 5.03446 17.8405C5.14507 17.5735 5.202 17.2873 5.202 16.9982C5.20187 16.4145 4.96985 15.8547 4.55699 15.442C4.14413 15.0293 3.58424 14.7976 3.0005 14.7977C2.41676 14.7979 1.85698 15.0299 1.4443 15.4427C1.03163 15.8556 0.799867 16.4145 0.799999 16.9982ZM0.799999 2.99822C0.799999 3.28726 0.85693 3.57347 0.96754 3.8405C1.07815 4.10754 1.24028 4.35018 1.44466 4.55456C1.64904 4.75894 1.89167 4.92107 2.15871 5.03168C2.42575 5.14229 2.71196 5.19922 3.001 5.19922C3.29004 5.19922 3.57625 5.14229 3.84329 5.03168C4.11032 4.92107 4.35296 4.75894 4.55734 4.55456C4.76172 4.35018 4.92385 4.10754 5.03446 3.8405C5.14507 3.57347 5.202 3.28726 5.202 2.99822C5.20187 2.41448 4.96985 1.8547 4.55699 1.44202C4.14413 1.02935 3.58424 0.797585 3.0005 0.797718C2.41676 0.797851 1.85698 1.02987 1.4443 1.44273C1.03163 1.85559 0.799867 2.41448 0.799999 2.99822Z" fill="#131313"/>
</svg>
