<svg width="20" height="20" viewBox="0 0 20 20" fill="none" xmlns="http://www.w3.org/2000/svg">
<path d="M11.2354 4.19674L11.2354 4.19666C11.6146 3.81728 12.0649 3.51634 12.5604 3.31101C13.0559 3.10568 13.5871 3 14.1235 3C14.6599 3 15.191 3.10568 15.6865 3.31101C16.1821 3.51634 16.6323 3.81728 17.0115 4.19666L17.0117 4.19682C17.391 4.57602 17.692 5.02625 17.8973 5.52179C18.1026 6.01733 18.2083 6.54846 18.2083 7.08485C18.2083 7.62125 18.1026 8.15238 17.8973 8.64792C17.692 9.14346 17.391 9.59369 17.0117 9.97289L17.0116 9.97297L16.1283 10.8563L9.99847 16.9861L3.86869 10.8563L2.98536 9.97297C2.21938 9.20699 1.78906 8.16811 1.78906 7.08485C1.78906 6.0016 2.21938 4.96272 2.98536 4.19674C3.75133 3.43077 4.79022 3.00045 5.87347 3.00045C6.95672 3.00045 7.99561 3.43077 8.76159 4.19674L9.64492 5.08007C9.84018 5.27534 10.1568 5.27534 10.352 5.08007L11.2354 4.19674Z" fill="#FFC303" stroke="white" stroke-linecap="round" stroke-linejoin="round"/>
</svg>
