<svg width="38" height="33" viewBox="0 0 38 33" fill="none" xmlns="http://www.w3.org/2000/svg">
<path d="M33.7333 3.68247C32.8821 2.83081 31.8714 2.15521 30.7589 1.69428C29.6465 1.23334 28.4541 0.996094 27.25 0.996094C26.0459 0.996094 24.8535 1.23334 23.7411 1.69428C22.6286 2.15521 21.6179 2.83081 20.7667 3.68247L19 5.44914L17.2333 3.68247C15.5138 1.96298 13.1817 0.996985 10.75 0.996985C8.31827 0.996985 5.98615 1.96298 4.26666 3.68247C2.54717 5.40196 1.58118 7.73408 1.58118 10.1658C1.58118 12.5975 2.54717 14.9297 4.26666 16.6491L6.03333 18.4158L19 31.3825L31.9667 18.4158L33.7333 16.6491C34.585 15.7979 35.2606 14.7872 35.7215 13.6747C36.1825 12.5623 36.4197 11.3699 36.4197 10.1658C36.4197 8.96166 36.1825 7.76931 35.7215 6.65688C35.2606 5.54445 34.585 4.53373 33.7333 3.68247Z" stroke="#131313" stroke-width="2" stroke-linecap="round" stroke-linejoin="round"/>
</svg>
